<svg width="992" height="885" viewBox="0 0 992 885" fill="none" xmlns="http://www.w3.org/2000/svg">
<path d="M1034 924.914H1036.5V929.917H1034C922.267 929.631 756.946 929.196 640.33 928.825C560.208 928.571 503.033 928.337 501.867 928.2C500.119 927.998 498.677 927.405 497.554 926.61C496.112 925.603 495.19 924.257 494.755 922.974C494.098 921.013 493.028 915.766 491.48 908.145C487.399 888.112 479.916 851.448 468.627 817.456C466.878 812.177 465.924 809.273 465.002 806.464C461.208 794.889 457.689 784.173 454.371 775.502C454.042 775.873 453.64 776.255 453.173 776.626C446.877 781.661 423.198 789.261 400.409 795.048C388.166 798.154 376.072 800.708 366.872 802.054C367.433 805.33 367.677 807.736 367.423 808.743C367.052 810.205 365.992 811.509 364.518 812.611C362.653 814.011 360.014 815.177 357.512 815.908C354.873 816.671 352.244 816.968 350.633 816.565C349.7 816.332 348.948 815.876 348.418 815.166C347.665 814.159 347.05 812.749 346.393 811.212C345.503 809.156 344.485 806.792 343.605 806.273C342.249 805.457 303.9 812.813 273.097 821.579C255.407 826.614 240.546 832.083 237.43 836.683C233.518 842.439 230.922 875.52 229.024 899.644C228.303 908.834 227.678 916.752 227.106 921.501C226.915 923.048 226.47 924.246 225.897 925.115C224.933 926.578 223.597 927.225 222.304 927.225C217.555 927.225 -197.269 930.224 -198.467 930.235L-200.968 930.245L-201 925.232L-198.499 925.221C-197.322 925.211 205.557 922.296 221.795 922.2C221.933 921.925 222.039 921.501 222.113 920.907C222.675 916.265 223.3 908.389 224.011 899.252C225.95 874.576 228.611 840.753 233.285 833.874C237.175 828.129 253.064 822.056 271.719 816.745C303.507 807.704 344.347 800.878 346.181 801.97C348.471 803.337 349.817 806.485 351.004 809.23C351.428 810.227 351.831 811.159 352.159 811.742C353.018 811.827 354.491 811.573 356.124 811.096C358.106 810.523 360.162 809.633 361.519 808.605C362.102 808.17 362.494 807.789 362.558 807.524C362.685 807.004 362.452 805.245 361.964 802.68C356.378 803.284 352.467 803.231 351.163 802.309C350.909 802.128 350.675 801.906 350.474 801.652C347.294 797.677 342.408 779.997 339.578 769.005C293.682 777.93 246.874 788.413 231.907 792.981C233.836 813.618 234.207 827.461 232.257 829.242C230.264 831.065 228.197 831.193 226.173 830.048C224.498 829.094 223.014 827.112 221.827 824.504C220.757 822.172 219.866 819.268 219.262 816.173C217.312 806.273 218.213 793.946 225.071 790.193C225.505 789.96 226.194 789.674 227.116 789.345C224.191 763.228 218.933 726.214 212.945 689.19C203.395 630.108 191.777 571.323 184.368 556.515C177.065 541.909 162.872 529.434 148.107 516.439C130.936 501.334 113.001 485.551 103.43 464.479C95.0881 446.132 93.6254 427.19 96.5403 410.443C99.964 390.802 109.44 374.108 120.983 364.812C132.197 355.792 141.631 355.283 148.489 356.406C140.624 350.693 131.233 348.478 117.845 359.374C98.8404 374.86 95.4167 394.946 93.6678 405.228C92.8411 410.061 92.3217 413.167 90.0216 414.047C83.1848 416.665 71.0696 388.29 59.4419 361.081C53.5167 347.206 47.7187 333.649 43.1927 324.936C29.8479 299.264 29.8479 181.164 29.8479 168.02C29.8479 159.541 34.6389 157.156 41.2106 157.156C44.825 157.156 48.9165 157.972 52.9443 158.788C54.99 159.201 57.0145 159.604 58.8165 159.869C63.5015 160.569 68.2819 159.403 72.2779 157.272C73.0199 156.88 73.7301 156.456 74.3978 156C72.6595 155.916 70.6244 156.032 68.4939 156.159C61.7314 156.552 54.1527 156.997 48.9907 151.835C45.5564 148.401 43.1609 144.701 41.942 141.182C40.9456 138.299 40.7336 135.49 41.3908 132.999C42.0798 130.371 43.6909 128.145 46.309 126.576C48.3547 125.357 51.0046 124.552 54.2798 124.318C57.9367 124.053 61.1696 123.481 63.8407 122.591C66.5965 121.668 68.7483 120.428 70.1156 118.849C71.3452 117.429 71.9599 115.669 71.8009 113.549C71.7373 112.595 71.5253 111.588 71.1649 110.518C68.3455 102.049 62.4733 97.777 55.8592 96.0493C51.1742 94.8303 46.0652 94.8409 41.3272 95.5511C36.5468 96.2613 32.1904 97.6498 29.0211 99.1656C28.8727 99.2398 28.7349 99.3034 28.5865 99.3775C30.2189 109.723 34.4269 122.092 36.8966 129.385C37.8187 132.088 38.5077 134.134 38.7939 135.268C39.6737 138.797 38.8999 142.815 37.045 146.503C35.1689 150.255 32.1586 153.743 28.7031 156.043C26.5938 157.453 24.8661 156.912 23.4669 154.813C19.3755 148.676 19.6723 114.694 19.7677 104.158C19.7677 103.681 19.7783 103.299 19.7783 101.709C19.7783 100.109 21.0926 98.3388 23.3503 96.7065C22.6614 89.6472 23.2867 83.457 26.456 79.938C32.1586 73.5994 46.0546 74.1082 58.6469 74.5746C68.0805 74.9244 76.7085 75.2423 78.6695 72.9528C80.5986 70.6951 80.9484 67.8545 81.2558 65.247C81.9023 59.82 82.4641 55.1562 91.3041 54.0114C96.1269 53.3861 99.646 53.5769 102.116 54.287C103.812 54.7746 105.094 55.506 106.016 56.4069C107.087 57.4457 107.659 58.6752 107.829 59.979C107.945 60.8905 107.861 61.8127 107.606 62.7031C107.384 63.4768 106.832 64.9502 106.091 66.9111C103.356 74.1718 97.8971 88.6084 98.6497 96.4415C99.381 104.116 100.844 108.154 102.412 109.596C102.614 109.786 102.752 109.861 102.826 109.85C103.038 109.808 103.335 109.564 103.663 109.15C105.285 107.105 106.313 102.769 105.73 97.459C105.349 94.0566 106.716 90.4421 108.603 86.9337C108.666 84.7608 108.815 82.662 109.037 80.7117C109.557 76.1963 110.574 72.4017 112.153 70.3666C114.083 67.8863 116.457 67.3457 119.319 69.5716C123.378 72.7303 120.167 77.765 116.436 83.6372C115.482 85.1317 114.485 86.7005 113.595 88.2586C113.563 90.2831 113.595 92.35 113.701 94.364C114.093 101.943 114.909 108.769 115.853 108.716C118.365 108.589 120.591 98.7098 122.923 88.354C123.378 86.3507 123.834 84.3368 124.385 82.0261C125.477 77.4577 126.823 73.2708 127.947 69.7942C128.615 67.7379 129.176 65.9677 129.569 64.7064C128.731 64.8654 127.915 65.035 127.131 65.1834C120.877 66.4235 116.096 67.3669 114.507 65.7875C113.213 64.4944 113.15 63.0529 114.019 61.5795C114.655 60.509 115.991 59.4702 117.686 58.6434C119.128 57.9439 120.93 57.3185 122.785 56.9263C126.791 56.0783 131.127 56.3115 133.522 58.866C137.073 58.2407 140.74 57.6895 144.154 57.4351C146.04 55.4742 148.213 53.7252 150.704 52.2943C153.184 50.8846 155.58 51.0436 157.806 52.1459C159.247 52.8667 160.572 54.0114 161.759 55.3576C162.851 56.6083 163.826 58.0499 164.642 59.4808C166.815 63.286 167.769 67.6213 167.261 68.6494C166.434 70.303 165.204 70.5785 163.572 69.7624C163 69.4762 162.321 68.9356 161.41 68.2042C159.004 66.2857 154.594 62.7561 150.1 62.3851C148.987 62.2897 147.779 62.2791 146.496 62.3215C144.811 64.3354 143.433 66.5401 142.32 68.7978C138.642 76.1963 137.773 83.7432 138.366 86.1281C139.151 89.308 140.115 90.9509 141.037 91.5339C141.207 91.6399 141.345 91.6717 141.461 91.6611C141.641 91.6293 141.843 91.5127 142.055 91.3325C142.85 90.6011 143.401 89.2338 143.412 87.6226C143.422 86.1175 143.602 84.5382 143.952 83.0012C144.599 80.1393 145.839 77.3199 147.662 75.1894C149.655 72.8468 152.315 71.3205 155.633 71.3417C156.407 71.3417 157.212 71.4371 158.028 71.6173C159.332 71.9141 258.014 61.4947 380.768 48.5527C583.77 27.1203 852.395 -1.22289 859.115 0.801625C864.33 2.37036 871.114 7.93513 877.209 15.1428C878.587 15.2382 880.166 15.7788 881.862 16.6798C884.088 17.8775 886.695 19.7748 889.324 22.1597C894.136 26.5162 899.086 32.5579 901.884 38.8647C908.594 53.9584 906.993 71.1615 906.644 74.9774L906.612 75.2847C906.569 75.8041 906.474 76.2811 906.347 76.7369C905.478 79.7896 902.754 82.4183 899.712 84.199C896.744 85.9373 893.32 86.9231 890.999 86.7111C890.575 86.6687 890.193 86.6051 889.865 86.5097C884.236 84.8985 878.173 80.1075 872.566 73.4828C866.853 66.7415 861.532 58.0393 857.599 48.9024C855.448 43.91 853.953 38.6739 852.565 33.8193C850.106 25.1912 848.007 17.8457 843.672 16.6586C836.358 14.6659 683.926 33.4589 524.593 53.0999C395.522 69.0204 261.968 85.4815 195.869 91.2053C196.441 91.3749 197.003 91.5763 197.544 91.8095C202.112 93.7704 203.14 96.3143 201.805 99.4199C200.48 102.515 196.028 105.589 190.749 109.235C183.796 114.037 175.263 119.93 172.327 126.777C170.462 131.123 168.978 136.02 167.6 140.578C167.239 141.776 166.879 142.952 166.519 144.097C166.9 144.383 167.282 144.701 167.674 145.051C173.62 150.425 188.025 162.233 200.289 171.667C209.373 178.652 217.089 184.248 218.827 184.662C219.177 184.746 219.516 184.789 219.845 184.799C222.516 179.15 225.77 173.479 229.798 168.02C249.386 141.532 281.884 136.455 302.765 138.098C304.324 136.964 306.433 136.031 309.136 135.405C318.495 133.275 335.55 134.897 350.962 144.892C361.741 151.888 371.768 162.964 377.863 179.701C381.838 190.608 385.007 204.631 386.396 217.117C387.689 228.745 387.424 239.196 384.827 244.899C382.082 250.941 375.5 257.375 367.847 263.3C355.901 272.532 341.189 280.662 334.924 283.799C332.285 285.114 329.201 290.265 325.332 296.71C316.736 311.051 304.589 331.296 280.877 335.97C263.261 339.447 249.079 331.699 233.603 323.24C226.724 319.488 219.591 315.577 211.789 312.535C200.84 308.253 191.703 307.935 184.782 307.691C176.45 307.405 170.896 307.203 168.215 301.161C166.126 296.476 172.062 283.587 180.34 271.334C188.121 259.823 198.01 248.545 205.08 245.132C209.351 243.076 218.054 246.796 229.332 251.619C237.97 255.308 248.209 259.685 258.597 262.568C270.945 265.992 283.686 268.377 294.742 269.935C310.747 272.182 322.926 272.733 325.077 272.119C327.696 271.377 330.197 254.757 331.363 235.073C332.465 216.556 331.978 195.59 328.84 182.139C328.279 179.733 327.441 177.496 326.371 175.44C321.749 166.558 312.665 160.897 302.034 158.057C291.159 155.152 278.715 155.205 267.691 157.781C262.763 158.926 258.131 160.579 254.06 162.699C244.489 167.681 238.691 174.518 234.101 179.924C230.222 184.492 227.106 188.17 223.226 189.421C218.509 200.042 215.754 210.546 213.485 219.216C210.136 231.978 207.74 241.115 201.084 242.323C195.901 243.267 181.814 226.445 166.72 208.415C153.407 192.516 139.278 175.641 131.37 170.066C123.696 164.65 117.983 159.138 114.242 153.573C110.627 148.199 108.836 142.772 108.878 137.324C108.889 136.031 109.005 134.748 109.217 133.466C97.2717 140.589 86.8205 147.256 85.9407 149.747C85.3472 151.432 84.3826 153.117 83.1107 154.718C84.3084 156.605 84.7112 159.371 84.0328 163.399C82.5489 172.292 90.0322 207.493 99.222 241.263C107.977 273.433 118.163 304.034 123.442 308.857C129.823 314.686 141.111 327.809 149.74 339.214C157.445 349.4 163 358.664 161.59 361.515C164.886 364.78 168.077 367.896 171.288 369.868C177.839 373.885 190.537 377.171 202.409 378.803C212.107 380.139 221.032 380.446 225.155 379.195C223.629 374.532 222.241 369.603 221.032 364.674C218.711 355.262 216.983 345.828 216.156 338.355C215.266 330.353 215.489 324.258 217.142 322.149C217.672 321.481 218.329 321.036 219.124 320.834C220.322 320.537 221.456 320.824 222.527 321.629C224.625 323.209 226.735 327.724 228.515 333.617C230.19 339.129 231.685 346.051 232.681 352.887C234.419 364.844 234.462 376.704 231.07 381.178C234.345 390.579 238.097 398.211 241.871 401.179C245.284 403.861 249.026 405.684 252.969 406.765C264.851 410.008 278.842 406.616 292.092 399.631C305.542 392.54 318.167 381.76 327.113 370.377C332.847 363.073 337.034 355.58 338.899 348.732C340.33 343.496 340.532 337.762 340.733 331.678C341.093 321.375 341.486 310.086 347.591 297.547C349.446 293.742 351.28 290.541 353.092 287.901C351.545 285.336 350.548 283.248 351.46 281.001C353.431 276.146 358.339 273.634 364.158 270.666C367.317 269.055 370.772 267.285 374.016 264.953C376.114 263.448 378.118 261.848 379.941 260.385C384.732 256.558 388.357 253.665 392.226 253.93C392.777 253.972 393.328 254.121 393.869 254.396C395.353 255.138 396.815 257.29 398.204 260.491C400.589 256.919 404.034 254.905 408.92 255.456C420.113 256.696 444.047 266.999 463.126 285.856C475.983 298.565 486.721 315.163 490.038 335.536C493.261 355.293 492.339 382.11 489.551 409.362C485.311 450.721 476.747 493.194 471.881 513.29C471.426 515.156 470.715 517.922 469.857 521.283C464.292 542.959 452.145 590.243 448.34 639.001C445.584 674.33 450.248 708.736 453.671 734.037C455.675 748.866 457.275 760.663 456.66 768.157C460.879 777.94 465.108 790.819 469.73 804.927C471.161 809.294 472.623 813.735 473.334 815.908C484.728 850.219 492.233 887.052 496.345 907.16C497.872 914.632 498.921 919.773 499.461 921.416C499.578 921.776 499.875 922.179 500.373 922.518C500.861 922.858 501.528 923.122 502.398 923.218C503.436 923.334 560.409 923.568 640.287 923.822C756.935 924.193 922.257 924.638 1034 924.914ZM451.71 768.952C448.319 761.119 445.117 755.914 441.98 754.706C435.875 752.364 400.419 757.674 360.003 765.136C359.346 765.253 358.689 765.38 358.031 765.507C359.971 772.566 362.473 782.159 364.423 790.416C365.006 792.907 365.547 795.302 366.002 797.486C374.577 796.055 386.714 793.363 399.2 790.193C421.459 784.544 444.376 777.283 450.068 772.736C450.354 772.503 450.566 772.301 450.682 772.132C451.17 771.422 451.509 770.351 451.71 768.952ZM443.761 750.032C446.474 751.081 449.06 753.858 451.583 757.981C451.053 751.749 449.983 743.831 448.743 734.705C445.287 709.16 440.581 674.436 443.369 638.63C447.206 589.501 459.438 541.878 465.045 520.042C465.85 516.884 466.518 514.287 467.048 512.103C471.881 492.155 480.382 449.958 484.601 408.842C487.357 381.973 488.279 355.601 485.131 336.331C482.004 317.146 471.828 301.458 459.65 289.417C441.418 271.408 418.862 261.593 408.411 260.438C404.564 260.014 402.115 262.78 400.599 267.158C402.242 272.712 403.705 279.665 404.86 287.265C407.362 303.642 408.729 323.283 407.722 338.059C407.192 345.849 405.973 352.379 403.896 356.544C401.924 360.498 399.041 365.469 394.738 370.239C390.392 375.062 384.594 379.672 376.846 382.831C363.13 388.417 348.545 396.112 336.589 402.43C321.601 410.348 310.418 416.241 307.726 412.722C307.631 412.595 307.535 412.457 307.45 412.287C306.2 409.955 309.645 402.239 316.704 393.102C323.265 384.601 332.942 374.277 344.506 365.437C349.552 361.579 354.979 357.986 360.703 354.922C371.472 349.167 379.591 341.652 385.262 334.211C392.544 324.661 395.713 315.46 395.162 310.489C395.141 310.319 395.077 309.779 395.003 309.1C394.271 302.741 392.512 287.499 393.89 275.097C394.229 272.076 394.748 269.225 395.512 266.67C394.271 262.462 392.999 259.685 391.802 258.954C389.873 258.954 386.947 261.286 383.121 264.339C381.319 265.78 379.337 267.359 376.994 269.045C373.454 271.589 369.818 273.444 366.49 275.15C361.582 277.662 357.438 279.772 356.166 282.92C356.134 283.004 356.24 283.28 356.463 283.683C357.184 282.888 357.904 282.178 358.615 281.552C360.819 279.623 363.024 278.468 365.207 278.033C367.529 277.556 369.755 277.885 371.875 278.913C373.645 279.772 375.33 281.139 376.92 282.962C380.831 287.435 379.549 300.207 375.69 311.962C374.27 316.298 372.51 320.537 370.55 324.194C368.525 327.968 366.278 331.137 363.925 333.183C361.211 335.557 358.328 336.553 355.403 335.589C349.478 333.649 349.35 329.038 351.248 323.23C351.979 321.004 353.039 318.577 354.141 316.064C355.657 312.598 357.258 308.952 358.021 305.645C359.219 300.451 357.788 296.169 355.996 292.735C354.746 294.749 353.474 297.091 352.17 299.773C346.51 311.39 346.139 322.096 345.8 331.858C345.577 338.249 345.365 344.259 343.786 350.078C341.729 357.615 337.235 365.723 331.109 373.514C321.77 385.407 308.563 396.674 294.487 404.104C280.199 411.641 264.946 415.245 251.718 411.63C247.118 410.379 242.782 408.259 238.829 405.164C234.483 401.751 230.328 393.632 226.767 383.774C221.287 385.322 211.768 385.174 201.794 383.806C189.339 382.089 175.878 378.559 168.734 374.182C164.886 371.818 161.357 368.32 157.7 364.695C157.329 364.324 156.958 363.953 156.576 363.593C155.643 363.413 154.594 363.116 153.428 362.777C147.63 361.123 137.296 358.166 124.12 368.765C113.468 377.34 104.691 392.911 101.49 411.333C98.7344 427.19 100.123 445.114 108.009 462.466C117.135 482.531 134.656 497.953 151.435 512.718C166.561 526.031 181.093 538.814 188.852 554.332C196.505 569.627 208.292 628.974 217.895 688.459C223.767 724.783 228.738 761.278 231.42 788.042C248.326 783.092 293.819 772.884 338.338 764.203C338.062 763.112 337.839 762.2 337.67 761.522L337.426 760.557C336.769 757.918 338.603 755.363 341.401 753.678C342.429 753.063 343.584 752.554 344.761 752.194C345.959 751.834 347.231 751.632 348.46 751.632C351.523 751.643 354.216 752.915 355.297 756.137C355.583 757.006 356.06 758.596 356.664 760.695C357.47 760.546 358.286 760.398 359.091 760.25C400.26 752.597 436.68 747.308 443.761 750.032ZM353.081 766.429C350.23 766.97 347.368 767.51 344.496 768.062C347.178 778.502 351.576 794.592 354.205 798.313C355.064 798.726 357.491 798.662 361.031 798.217C360.586 796.182 360.077 793.924 359.515 791.55C357.544 783.134 355 773.414 353.081 766.429ZM227.678 794.486C227.604 794.518 227.53 794.56 227.466 794.592C222.855 797.104 222.569 807.036 224.18 815.208C224.721 817.964 225.484 820.466 226.374 822.416C227.138 824.091 227.932 825.278 228.643 825.681C228.674 825.702 228.738 825.66 228.865 825.543C230.201 824.335 229.597 812.548 227.678 794.486ZM343.266 763.196C346.096 762.645 348.927 762.115 351.725 761.585C351.216 759.794 350.803 758.437 350.548 757.674C350.294 756.911 349.446 756.603 348.449 756.603C347.75 756.603 346.976 756.731 346.202 756.964C345.397 757.208 344.634 757.536 343.977 757.939C342.98 758.532 342.249 759.094 342.291 759.296C342.408 759.773 342.323 759.423 342.535 760.271C342.715 761.002 342.969 761.999 343.266 763.196ZM155.198 355.336C153.163 352.188 149.74 347.46 145.786 342.235C137.306 331.031 126.283 318.195 120.114 312.567C114.093 307.065 103.377 275.5 94.4204 242.578C85.0822 208.256 77.5247 172.175 79.1252 162.572C79.4008 160.908 79.3796 159.657 79.1252 158.714C77.7579 159.816 76.2422 160.813 74.6204 161.671C69.7552 164.268 63.8831 165.678 58.0851 164.819C56.05 164.512 54.0148 164.109 51.9585 163.696C48.1851 162.943 44.3374 162.169 41.2106 162.169C37.5431 162.169 34.8721 163.452 34.8721 168.01C34.8721 181.026 34.8721 298.035 47.6551 322.615C52.2129 331.391 58.0745 345.097 64.0633 359.109C74.7582 384.145 85.9089 410.242 88.2515 409.351C88.633 409.203 88.209 407.507 88.739 404.401C90.594 393.494 94.2296 372.168 114.697 355.484C133.289 340.337 145.15 346.358 155.198 355.336ZM76.8887 151.209C77.6837 151.347 78.4362 151.517 79.1252 151.75C80.0898 150.552 80.8106 149.312 81.2451 148.083C82.7503 143.811 96.9643 134.886 111.56 126.269C112.365 124.573 113.362 122.887 114.549 121.213C118.291 115.913 123.919 110.708 131.445 105.631C134.137 103.819 137.614 102.812 140.528 102.674C142.012 102.61 143.412 102.769 144.546 103.162C146.093 103.702 147.238 104.667 147.747 106.098C148.044 106.924 148.086 107.825 147.842 108.811V108.822C147.227 111.27 136.66 117.429 124.173 124.7C121.343 126.343 118.418 128.049 115.492 129.766C114.454 132.3 113.934 134.833 113.913 137.356C113.881 141.765 115.386 146.249 118.428 150.775C121.82 155.81 127.109 160.887 134.285 165.953C142.733 171.921 157.074 189.05 170.599 205.193C184.729 222.067 197.915 237.818 200.236 237.394C203.744 236.758 205.79 228.915 208.673 217.955C210.846 209.666 213.453 199.745 217.746 189.548L217.693 189.537C215.213 188.944 206.818 182.987 197.247 175.62C185.259 166.399 171.151 154.856 164.833 149.195C163.222 153.531 161.399 156.954 158.802 158.576C155.643 160.548 153.428 159.859 152.093 157.728C151.149 156.223 151.043 153.817 151.647 151.379C152.188 149.217 153.312 146.895 154.901 145.136C156.767 143.08 159.152 141.744 161.908 142.062C162.205 141.108 162.501 140.112 162.809 139.115C164.208 134.473 165.724 129.491 167.727 124.806C171.235 116.634 180.425 110.274 187.919 105.101C192.551 101.9 196.452 99.208 197.204 97.4484C197.279 97.2682 196.844 96.9502 195.583 96.4097C190.569 94.258 183.457 95.6571 176.578 98.4342C175.359 98.9218 174.15 99.4623 172.963 100.024C169.539 103.967 163.402 109.373 159.014 112.489C157.562 113.528 156.279 114.334 155.315 114.811C152.835 116.019 151.054 115.743 150.312 113.528C150.036 112.701 150.142 111.726 150.715 110.602C152.432 107.168 160.678 100.491 170.239 95.7949C170.44 95.4981 170.568 95.2331 170.621 95.0317C170.674 94.8197 169.275 94.0566 167.409 93.1662C158.664 93.5054 153.789 93.2298 153.534 92.2228C152.898 89.6895 153.608 87.9194 155.198 86.7641C156.703 85.6723 158.961 85.4709 161.42 85.8631C163.487 86.1917 165.798 86.9337 167.907 87.877C169.391 88.5448 170.78 89.3398 171.956 90.2089C218.011 85.8207 374.058 66.5825 523.999 48.0969C683.798 28.4241 836.687 9.57806 844.986 11.8464C852.067 13.7755 854.515 22.3611 857.398 32.4625C858.744 37.1687 860.186 42.2459 862.21 46.9415C865.952 55.6332 870.997 63.8902 876.392 70.2606C881.385 76.1539 886.6 80.3725 891.232 81.6975C891.306 81.7187 891.38 81.7293 891.444 81.7399C892.801 81.8671 895.048 81.1357 897.178 79.8956C899.235 78.6872 901.036 77.0655 901.513 75.3695C901.567 75.1681 901.609 74.988 901.62 74.8396L901.651 74.5322C901.98 70.9495 903.485 54.8064 897.305 40.921C894.804 35.2926 890.331 29.8444 885.964 25.8908C885.222 25.223 884.48 24.587 883.759 24.0147C887.522 29.8232 890.543 36.0452 891.984 41.8113C894.581 52.2201 894.136 62.0777 892.928 67.5683C892.589 69.1264 892.165 70.3878 891.73 71.2675C890.882 72.9634 889.695 73.8432 888.243 73.7372C887.49 73.6842 886.833 73.3874 886.271 72.8256C885.222 71.7763 885.01 69.0628 884.703 65.035C884.289 59.5974 883.653 51.3297 881.608 43.5497C880.145 37.9637 877.749 32.7063 875.841 28.5089C873.69 23.7815 872.057 20.1882 872.842 17.7503C867.521 11.5602 861.86 6.87517 857.695 5.62443C851.897 3.8755 583.845 32.1551 381.276 53.5238C258.078 66.5189 159.035 76.9701 156.926 76.4931C156.449 76.3871 156.014 76.3341 155.612 76.3341C153.948 76.3235 152.559 77.1609 151.467 78.4328C150.206 79.9168 149.326 81.9625 148.839 84.093C148.563 85.3013 148.425 86.5097 148.415 87.6332C148.393 90.6541 147.174 93.41 145.425 95.0105C144.482 95.8797 143.38 96.4415 142.182 96.6217C140.931 96.8019 139.628 96.5581 138.377 95.7737C136.437 94.5547 134.614 91.9155 133.48 87.3259C132.717 84.252 133.586 75.0728 137.804 66.5719C138.419 65.3424 139.098 64.1234 139.85 62.9257C138.186 63.1483 136.501 63.4238 134.826 63.71C134.519 65.6921 133.692 68.2572 132.706 71.3099C131.604 74.7336 130.268 78.8674 129.24 83.1602C128.795 85.0045 128.297 87.2199 127.798 89.4246C125.032 101.678 122.393 113.369 116.096 113.698C113.542 113.825 111.581 110.645 110.309 105.886C109.726 108.546 108.762 110.74 107.585 112.214C106.483 113.613 105.147 114.503 103.684 114.758C102.073 115.044 100.473 114.588 99.01 113.242C96.6357 111.069 94.5158 105.949 93.6572 96.876C92.7986 87.877 98.5224 72.7197 101.395 65.1092C102.073 63.2966 102.593 61.9399 102.773 61.2933C102.847 61.0283 102.879 60.7845 102.858 60.5938C102.826 60.3818 102.72 60.1592 102.518 59.9684C102.169 59.6292 101.596 59.3218 100.738 59.078C98.8616 58.5374 96.0103 58.4102 91.9401 58.9402C86.9795 59.5868 86.6297 62.4593 86.2269 65.7981C85.8242 69.1158 85.3896 72.7514 82.4641 76.1751C78.9344 80.2983 69.151 79.938 58.4561 79.5458C46.9767 79.1218 34.3103 78.6554 30.1658 83.2662C28.2155 85.4391 27.6644 89.361 27.9611 94.1202C31.4166 92.6044 35.8366 91.2689 40.5746 90.5693C45.8956 89.785 51.683 89.7849 57.0887 91.1947C65.2292 93.3146 72.4263 98.5508 75.8924 108.938C76.3906 110.443 76.6873 111.864 76.7827 113.189C77.0371 116.708 75.9877 119.686 73.8784 122.114C71.8963 124.393 69.0027 126.12 65.3882 127.329C62.2825 128.367 58.6469 129.014 54.6084 129.311C52.1387 129.491 50.2414 130.031 48.8529 130.858C47.4325 131.706 46.5634 132.883 46.203 134.25C45.8108 135.755 45.9804 137.568 46.6482 139.529C47.6233 142.338 49.6055 145.369 52.4991 148.263C56.0818 151.845 62.4627 151.474 68.1759 151.135C71.3663 150.955 74.3236 150.785 76.8887 151.209ZM24.7813 105.589C24.6965 116.422 24.5693 143.981 27.1556 150.976C29.3921 149.185 31.3212 146.8 32.5932 144.245C33.9287 141.574 34.5223 138.776 33.9499 136.465C33.7167 135.511 33.0489 133.561 32.1692 130.975C30.0492 124.742 26.7634 115.054 24.7813 105.589ZM114.772 76.8535C115.874 75.0198 116.52 73.7372 116.245 73.5146C116.171 73.451 116.128 73.4298 116.128 73.4298C115.588 74.1188 115.132 75.3165 114.772 76.8535ZM151.743 57.5305C154.605 58.0075 157.244 59.2476 159.48 60.6256C159.014 59.926 158.516 59.2476 157.986 58.6434C157.223 57.7637 156.396 57.0429 155.569 56.6295C154.796 56.2479 153.99 56.1737 153.174 56.6401C152.686 56.9157 152.209 57.2125 151.743 57.5305ZM887.119 42.9985C886.377 40.0094 885.148 36.8719 883.59 33.7345C884.65 36.395 885.667 39.2568 886.451 42.2565C887.639 46.7825 888.37 51.3933 888.868 55.559C888.741 51.7325 888.222 47.4397 887.119 42.9985ZM177.934 92.6044C176.779 92.6786 175.666 92.7528 174.595 92.8164C174.786 93.092 174.956 93.3676 175.094 93.6432C176.037 93.2722 176.98 92.9224 177.934 92.6044ZM158.399 91.0251C158.442 91.1841 159.608 91.1947 161.834 91.0675C161.42 90.9721 161.017 90.8873 160.625 90.8237C159.406 90.6329 158.463 90.6011 158.124 90.8449C158.018 90.9297 158.346 90.8025 158.399 91.0251ZM156.237 154.262C157.679 153.287 158.929 150.775 160.148 147.436C159.565 147.637 159.046 148.019 158.611 148.507C157.615 149.609 156.884 151.156 156.523 152.609C156.354 153.245 156.258 153.817 156.237 154.262ZM156.354 155.089C156.481 155.29 156.364 155.078 156.258 154.824C156.279 154.93 156.311 155.015 156.354 155.089ZM229.141 178.069C229.522 177.624 229.915 177.157 230.317 176.68C235.183 170.935 241.352 163.664 251.781 158.237C256.223 155.926 261.258 154.135 266.589 152.884C278.376 150.128 291.699 150.086 303.37 153.202C315.283 156.382 325.533 162.858 330.865 173.119C332.126 175.535 333.101 178.154 333.758 180.994C337.013 194.922 337.521 216.429 336.398 235.359C335.115 256.993 331.246 275.574 326.477 276.931C323.89 277.673 310.757 277.228 294.084 274.885C282.849 273.306 269.886 270.868 257.293 267.381C246.556 264.402 236.168 259.961 227.402 256.219C217.301 251.905 209.51 248.577 207.295 249.637C201.052 252.637 191.905 263.226 184.538 274.133C177.086 285.145 171.479 296.105 172.825 299.137C174.235 302.306 178.528 302.465 184.983 302.688C192.286 302.942 201.942 303.281 213.655 307.86C221.689 310.998 229.003 314.994 236.041 318.841C250.679 326.844 264.088 334.168 279.955 331.042C301.483 326.791 312.952 307.68 321.071 294.134C325.353 287 328.777 281.287 332.72 279.316C338.825 276.263 353.166 268.345 364.815 259.336C371.896 253.866 377.916 248.047 380.291 242.843C382.495 237.999 382.644 228.491 381.446 217.679C380.1 205.553 377.026 191.965 373.189 181.418C367.518 165.847 358.233 155.566 348.269 149.1C335.868 141.055 322.47 138.882 313.694 139.751C315.612 140.218 317.297 140.737 318.686 141.299C323.35 143.164 325.395 145.793 323.996 148.591C323.318 149.948 321.675 151.082 318.951 151.803C311.499 153.796 305.627 152.471 302.405 149.959C301.08 148.931 300.158 147.68 299.681 146.334C299.289 145.221 299.193 144.065 299.427 142.91C279.754 142.051 251.241 147.468 233.847 170.999C232.141 173.32 230.572 175.684 229.141 178.069ZM304.589 143.302C304.525 143.408 304.472 143.525 304.43 143.631C304.292 143.981 304.292 144.341 304.408 144.669C304.567 145.125 304.938 145.592 305.489 146.026C307.641 147.701 311.892 148.507 317.658 146.959C318.877 146.63 319.46 146.44 319.502 146.355C319.682 145.994 318.326 146.556 316.82 145.952C314.012 144.839 309.772 143.853 304.589 143.302ZM134.243 109.797C129.06 113.295 124.862 116.824 121.651 120.375L121.661 120.365C132.112 114.281 141.111 109.044 142.723 107.847C142.214 107.709 141.525 107.656 140.741 107.688C138.663 107.772 136.172 108.504 134.243 109.797ZM228.738 373.768C229.416 368.999 228.908 361.399 227.773 353.597C226.82 347.036 225.378 340.39 223.767 335.069C222.707 331.55 221.626 328.72 220.672 327.056C220.46 329.229 220.661 333.024 221.191 337.804C221.997 345.086 223.682 354.286 225.95 363.476C226.798 366.953 227.742 370.419 228.738 373.768ZM361.922 285.294C361.031 286.068 360.13 287.022 359.197 288.156C361.879 292.618 364.783 298.618 362.907 306.737C362.038 310.489 360.342 314.358 358.742 318.036C357.703 320.41 356.696 322.71 356.028 324.745C355.032 327.777 354.862 330.098 356.961 330.787C358.01 331.126 359.282 330.565 360.639 329.377C362.515 327.735 364.391 325.053 366.14 321.799C367.942 318.428 369.585 314.464 370.931 310.372C374.312 300.048 375.849 289.29 373.157 286.216C372.023 284.912 370.857 283.958 369.68 283.386C368.546 282.835 367.38 282.655 366.193 282.898C364.868 283.174 363.448 283.948 361.922 285.294ZM399.91 288.007C399.476 285.156 399.009 282.411 398.532 279.824C397.939 290.774 399.349 303.038 399.985 308.518C400.027 308.91 400.069 309.302 400.144 309.927C400.811 315.948 397.335 326.622 389.247 337.242C383.205 345.171 374.535 353.184 363.056 359.321C357.629 362.225 352.424 365.67 347.549 369.401C336.355 377.966 327.017 387.929 320.668 396.144C315.294 403.108 312.019 408.249 311.839 409.637C313.026 409.192 322.194 404.348 334.257 397.988C346.33 391.618 361.063 383.838 374.97 378.178C381.923 375.348 387.117 371.203 391.017 366.879C394.971 362.501 397.621 357.933 399.433 354.297C401.193 350.778 402.242 344.895 402.73 337.719C403.716 323.325 402.37 304.098 399.91 288.007Z" fill="url(#paint0_linear_103_330)"/>
<defs>
<linearGradient id="paint0_linear_103_330" x1="417.749" y1="0.698975" x2="417.749" y2="930.245" gradientUnits="userSpaceOnUse">
<stop offset="0.503125" stop-color="#19802E" stop-opacity="0.5"/>
<stop offset="1" stop-color="white"/>
</linearGradient>
</defs>
</svg>
